<?xml version="1.0" encoding="UTF-8"?>
<svg xmlns="http://www.w3.org/2000/svg" width="600" height="600" viewBox="0 0 600 600" role="img" aria-label="Wanilla Coffee">
  <defs>
    <linearGradient id="bg" x1="0" y1="0" x2="1" y2="1">
      <stop offset="0%" stop-color="#2b160f"/>
      <stop offset="100%" stop-color="#5a2e1f"/>
    </linearGradient>
    <linearGradient id="cup" x1="0" y1="0" x2="0" y2="1">
      <stop offset="0%" stop-color="#fff3e6"/>
      <stop offset="100%" stop-color="#f6d9bd"/>
    </linearGradient>
  </defs>
  <rect width="600" height="600" fill="url(#bg)"/>
  <g transform="translate(300 285)">
    <ellipse cx="0" cy="170" rx="120" ry="22" fill="#000" opacity="0.18"/>
    <path d="M-92 -70 h150 a40 40 0 0 1 0 80 h-14 l-8 70 a26 26 0 0 1 -26 24 h-66 a26 26 0 0 1 -26 -24 z" fill="url(#cup)"/>
    <path d="M58 -56 a30 30 0 0 1 0 60 h-10 v-18 h8 a13 13 0 0 0 0 -26 h-8 v-16 z" fill="#e9c19c"/>
    <ellipse cx="-21" cy="-70" rx="71" ry="16" fill="#3a2014"/>
    <ellipse cx="-21" cy="-72" rx="71" ry="15" fill="#5a3221"/>
    <g fill="none" stroke="#ffb877" stroke-width="6" stroke-linecap="round" opacity="0.75">
      <path d="M-46 -104 q-12 -16 0 -32 q12 -16 0 -32"/>
      <path d="M-18 -110 q-12 -16 0 -32 q12 -16 0 -32"/>
      <path d="M10 -104 q-12 -16 0 -32 q12 -16 0 -32"/>
    </g>
  </g>
  <text x="300" y="540" text-anchor="middle" font-family="Georgia, 'Times New Roman', serif" font-size="40" fill="#ffb877" letter-spacing="2">Wanilla Coffee</text>
</svg>
